<svg xmlns="http://www.w3.org/2000/svg" width="194.87" height="29.719" viewBox="0 0 194.87 29.719">
  <metadata><?xpacket begin="﻿" id="W5M0MpCehiHzreSzNTczkc9d"?>
<x:xmpmeta xmlns:x="adobe:ns:meta/" x:xmptk="Adobe XMP Core 5.6-c142 79.160924, 2017/07/13-01:06:39        ">
   <rdf:RDF xmlns:rdf="http://www.w3.org/1999/02/22-rdf-syntax-ns#">
      <rdf:Description rdf:about=""/>
   </rdf:RDF>
</x:xmpmeta>
                                                                                                    
                                                                                                    
                                                                                                    
                                                                                                    
                                                                                                    
                                                                                                    
                                                                                                    
                                                                                                    
                                                                                                    
                                                                                                    
                                                                                                    
                                                                                                    
                                                                                                    
                                                                                                    
                                                                                                    
                                                                                                    
                                                                                                    
                                                                                                    
                                                                                                    
                                                                                                    
                           
<?xpacket end="w"?></metadata>
<defs>
    <style>
      .cls-1 {
        fill: #fff;
        fill-rule: evenodd;
      }
    </style>
  </defs>
  <path id="Vector" class="cls-1" d="M1633.88,60.84h3.92L1644.03,90h-3.85l-1.34-7.344h-5.94L1631.5,90h-3.82Zm4.42,18.9-2.44-13.14-2.42,13.14h4.86Zm16.21,10.584a8.172,8.172,0,0,1-4.79-1.224,6.24,6.24,0,0,1-2.34-3.42,19.866,19.866,0,0,1-.65-5.508V60.84h3.89V80.352a12.95,12.95,0,0,0,.76,5.04,3.1,3.1,0,0,0,3.13,1.728,3.038,3.038,0,0,0,3.1-1.728,12.685,12.685,0,0,0,.79-5.04V60.84h3.85V80.172a19.866,19.866,0,0,1-.65,5.508,6.24,6.24,0,0,1-2.34,3.42A8,8,0,0,1,1654.51,90.324Zm15.23-26.46h-4.93V60.84h13.78v3.024h-4.78V90h-4.07V63.864Zm19.12,26.46q-4.29,0-6.16-2.412c-1.22-1.632-1.84-3.984-1.84-7.056V69.8q0-4.536,1.88-6.876,1.86-2.34,6.12-2.34t6.08,2.376q1.875,2.34,1.87,6.84V80.892q0,4.536-1.87,6.984T1688.86,90.324Zm0-3.2a3.266,3.266,0,0,0,3.06-1.332,8.167,8.167,0,0,0,.79-4.032V68.976a7.647,7.647,0,0,0-.79-3.924,3.3,3.3,0,0,0-3.06-1.3c-1.54,0-2.57.432-3.1,1.3a7.546,7.546,0,0,0-.79,3.924v12.78a8.057,8.057,0,0,0,.79,4.032C1686.29,86.676,1687.32,87.12,1688.86,87.12Zm20.18-26.28h11.3v3.024h-7.23v9.648h5.86v2.88h-5.86V87.084h7.3V90h-11.37V60.84Zm18.94,13.9-5.97-13.9h3.78l4.42,10.3,4.04-10.3h3.78l-6.12,14.22,6.4,14.94h-3.78l-4.75-10.98L1725.68,90h-3.78Zm13.08-13.9h7.24q3.78,0,5.47,2.052a9.129,9.129,0,0,1,1.73,6.012,7.82,7.82,0,0,1-1.84,5.544,6.9,6.9,0,0,1-5.32,1.98h-3.21V90h-4.07V60.84ZM1747,73.512a7.676,7.676,0,0,0,2.78-.4,2.536,2.536,0,0,0,1.44-1.368,7.319,7.319,0,0,0,.43-2.808,11.806,11.806,0,0,0-.33-3.276,2.248,2.248,0,0,0-1.29-1.476,7.634,7.634,0,0,0-2.99-.432h-1.91v9.756H1747Zm11.36-12.672h5.87q4.425,0,6.48,1.836,2.085,1.8,2.09,5.9,0,5.616-3.6,6.8L1773.34,90h-3.93l-3.81-13.68h-3.17V90h-4.07V60.84Zm5.62,12.564a5.4,5.4,0,0,0,3.74-1.044c0.77-.7,1.15-1.956,1.15-3.78a8.044,8.044,0,0,0-.39-2.808,2.642,2.642,0,0,0-1.41-1.512,6.476,6.476,0,0,0-2.84-.5h-1.8V73.4h1.55Zm13.05-12.564h11.3v3.024h-7.23v9.648h5.87v2.88h-5.87V87.084h7.31V90h-11.38V60.84Zm21.54,29.484a7,7,0,0,1-5.62-2.268,10.274,10.274,0,0,1-2.12-6.228l3.6-.972a11.454,11.454,0,0,0,1.08,4.536,3.207,3.207,0,0,0,3.06,1.728,3.063,3.063,0,0,0,2.37-.864,3.649,3.649,0,0,0,.83-2.556,5.417,5.417,0,0,0-.76-2.988,12.514,12.514,0,0,0-2.41-2.628l-4.89-4.32a8.31,8.31,0,0,1-2.16-2.772,9.166,9.166,0,0,1-.65-3.672,6.578,6.578,0,0,1,1.83-4.968,8.168,8.168,0,0,1,10.23.072,9.3,9.3,0,0,1,2.12,5.688l-3.45.936a8.9,8.9,0,0,0-1.01-3.924,3.02,3.02,0,0,0-2.88-1.4,3.225,3.225,0,0,0-2.38.828,3.15,3.15,0,0,0-.83,2.376,5.013,5.013,0,0,0,.44,2.2,5.873,5.873,0,0,0,1.47,1.764l4.93,4.32a14.315,14.315,0,0,1,3.03,3.672,8.761,8.761,0,0,1,1.15,4.5,6.737,6.737,0,0,1-1.94,5.076A6.976,6.976,0,0,1,1798.57,90.324Zm17.01,0a6.966,6.966,0,0,1-5.61-2.268,10.277,10.277,0,0,1-2.13-6.228l3.6-.972a11.454,11.454,0,0,0,1.08,4.536,3.227,3.227,0,0,0,3.06,1.728,3.072,3.072,0,0,0,2.38-.864,3.649,3.649,0,0,0,.83-2.556,5.5,5.5,0,0,0-.76-2.988,12.8,12.8,0,0,0-2.41-2.628l-4.9-4.32a8.577,8.577,0,0,1-2.16-2.772,9.343,9.343,0,0,1-.65-3.672,6.583,6.583,0,0,1,1.84-4.968,8.153,8.153,0,0,1,10.22.072,9.237,9.237,0,0,1,2.13,5.688l-3.46.936a8.768,8.768,0,0,0-1.01-3.924,3,3,0,0,0-2.88-1.4,3.2,3.2,0,0,0-2.37.828,3.15,3.15,0,0,0-.83,2.376,5.017,5.017,0,0,0,.43,2.2,5.924,5.924,0,0,0,1.48,1.764l4.93,4.32a14.269,14.269,0,0,1,3.02,3.672,8.767,8.767,0,0,1,1.16,4.5,6.706,6.706,0,0,1-1.95,5.076A6.944,6.944,0,0,1,1815.58,90.324Z" transform="translate(-1627.69 -60.594)"/>
</svg>
